<?xml version="1.0" encoding="iso-8859-1"?>
<!-- Uploaded to: SVG Repo, www.svgrepo.com, Generator: SVG Repo Mixer Tools -->
<svg height="800px" width="800px" version="1.1" id="Layer_1" xmlns="http://www.w3.org/2000/svg" xmlns:xlink="http://www.w3.org/1999/xlink" 
	 viewBox="0 0 512 512" xml:space="preserve">
<path style="fill:#806749;" d="M378.148,229.002H51.712c-24.243,0-44.079,19.836-44.079,44.079l0,0
	c0,24.243,19.836,44.079,44.079,44.079h326.436c8.957,0,16.286-7.329,16.286-16.286v-55.584
	C394.434,236.33,387.105,229.002,378.148,229.002z"/>
<g>
	<path style="fill:#6A563D;" d="M7.634,273.079c0,24.243,19.836,44.079,44.079,44.079h326.436c8.957,0,16.286-7.329,16.286-16.286
		v-28.501c0,8.957-7.329,16.286-16.286,16.286H51.713c-19.26,0-35.727-12.525-41.687-29.828
		C8.484,263.305,7.634,268.097,7.634,273.079L7.634,273.079z"/>
	<path style="fill:#6A563D;" d="M302.824,267.172h-71.931c-4.216,0-7.634-3.418-7.634-7.634c0-4.216,3.418-7.634,7.634-7.634h71.931
		c4.217,0,7.634,3.418,7.634,7.634C310.458,263.754,307.041,267.172,302.824,267.172z"/>
	<path style="fill:#6A563D;" d="M348.29,267.172h-18.322c-4.217,0-7.634-3.418-7.634-7.634c0-4.216,3.417-7.634,7.634-7.634h18.322
		c4.217,0,7.634,3.418,7.634,7.634C355.924,263.754,352.507,267.172,348.29,267.172z"/>
</g>
<path style="fill:#FFE477;" d="M182.968,264.882l35.953-35.88H112.906l-36.88,36.88c-3.975,3.975-3.975,10.42,0,14.396l36.88,36.88
	h106.015l-36.334-36.897C175.589,271.498,182.968,264.882,182.968,264.882z"/>
<polygon style="fill:#FFDA44;" points="112.907,317.158 218.922,317.158 190.856,288.657 84.406,288.657 "/>
<circle style="fill:#FFA733;" cx="143.359" cy="273.078" r="22.055"/>
<path style="fill:#3E3D42;" d="M415.81,229.002c-11.757,0-21.376,9.619-21.376,21.376v45.405c0,11.757,9.619,21.376,21.376,21.376
	c11.757,0,21.376-9.619,21.376-21.376v-45.405C437.185,238.621,427.566,229.002,415.81,229.002z"/>
<path style="fill:#2D2D30;" d="M415.81,288.657c-11.757,0-21.376-9.619-21.376-21.376v28.501c0,11.757,9.619,21.376,21.376,21.376
	c11.757,0,21.376-9.619,21.376-21.376v-28.501C437.185,279.038,427.566,288.657,415.81,288.657z"/>
<g>
	<path style="fill:#B9D8F4;" d="M419.738,187.268h-70.534c-12.316,0-22.394-10.077-22.394-22.394l0,0
		c0-12.316,10.077-22.394,22.394-22.394h70.534c12.316,0,22.394,10.077,22.394,22.394l0,0
		C442.131,177.191,432.054,187.268,419.738,187.268z"/>
	<path style="fill:#B9D8F4;" d="M206.695,142.481H179.93c-12.316,0-22.394-10.077-22.394-22.394l0,0
		c0-12.316,10.077-22.394,22.394-22.394h26.765c12.316,0,22.394,10.077,22.394,22.394l0,0
		C229.089,132.404,219.012,142.481,206.695,142.481z"/>
</g>
<g>
	<path style="fill:#D1E7F8;" d="M481.972,240.198L481.972,240.198c-12.316,0-22.394-10.077-22.394-22.394l0,0
		c0-12.316,10.077-22.393,22.394-22.393l0,0c12.316,0,22.393,10.077,22.393,22.393l0,0
		C504.366,230.121,494.289,240.198,481.972,240.198z"/>
	<path style="fill:#D1E7F8;" d="M459.579,142.481H278.924c-12.316,0-22.393-10.077-22.393-22.394l0,0
		c0-12.316,10.077-22.394,22.393-22.394h180.655c12.316,0,22.394,10.077,22.394,22.394l0,0
		C481.972,132.404,471.895,142.481,459.579,142.481z"/>
</g>
<path d="M449.765,326.598c-2.006,0-3.97,0.814-5.395,2.239c-1.425,1.415-2.239,3.39-2.239,5.395c0,2.015,0.814,3.98,2.239,5.405
	c1.424,1.415,3.389,2.229,5.395,2.229c2.014,0,3.98-0.814,5.405-2.229c1.416-1.425,2.229-3.39,2.229-5.405
	c0-2.005-0.814-3.97-2.229-5.395C453.745,327.412,451.78,326.598,449.765,326.598z"/>
<path d="M415.81,365.956c-2.006,0-3.97,0.814-5.395,2.239c-1.425,1.415-2.239,3.39-2.239,5.395c0,2.015,0.814,3.98,2.239,5.405
	c1.424,1.415,3.389,2.229,5.395,2.229c2.014,0,3.98-0.814,5.405-2.229c1.416-1.425,2.229-3.39,2.229-5.405
	c0-2.005-0.814-3.97-2.229-5.395C419.791,366.771,417.825,365.956,415.81,365.956z"/>
<path d="M449.765,406.672c-2.006,0-3.97,0.814-5.395,2.239c-1.425,1.415-2.239,3.39-2.239,5.395c0,2.015,0.814,3.98,2.239,5.405
	c1.424,1.415,3.389,2.229,5.395,2.229c2.014,0,3.98-0.814,5.405-2.229c1.416-1.425,2.229-3.39,2.229-5.405
	c0-2.005-0.814-3.97-2.229-5.395C453.745,407.486,451.78,406.672,449.765,406.672z"/>
<path d="M444.82,250.377c0-15.996-13.014-29.01-29.01-29.01c-7.695,0-14.695,3.018-19.894,7.925
	c-4.381-4.862-10.723-7.925-17.768-7.925H51.712c-4.216,0-7.634,3.418-7.634,7.634s3.418,7.634,7.634,7.634h42.763l-23.848,23.848
	c-6.944,6.945-6.944,18.246,0,25.192l23.848,23.848H51.713c-20.095,0-36.444-16.349-36.444-36.444
	c0-11.474,5.564-22.436,14.883-29.324c3.392-2.506,4.108-7.286,1.602-10.677c-2.505-3.391-7.285-4.109-10.677-1.602
	C7.878,241.23,0,256.783,0,273.079c0,28.514,23.199,51.713,51.713,51.713h326.436c7.045,0,13.386-3.063,17.768-7.925
	c5.198,4.907,12.198,7.925,19.894,7.925c15.996,0,29.01-13.014,29.01-29.01v-45.405H444.82z M81.425,274.879
	c-0.992-0.992-0.992-2.608,0-3.6l34.644-34.644h84.397l-22.771,22.725c-13.302,13.719-0.733,26.067-0.548,26.255l23.543,23.907
	h-84.621L81.425,274.879z M386.8,300.871c0,4.771-3.881,8.652-8.652,8.652H222.117l-33.798-34.322
	c-2.552-2.121-0.133-4.741,0.042-4.915l33.717-33.65h156.069c4.771,0,8.652,3.881,8.652,8.652V300.871z M429.551,295.782
	c0,7.577-6.164,13.741-13.741,13.741s-13.741-6.164-13.741-13.741v-45.405c0-7.577,6.164-13.741,13.741-13.741
	s13.741,6.164,13.741,13.741V295.782z"/>
<path d="M278.924,150.115h44.134c-2.472,4.362-3.883,9.398-3.883,14.759c0,16.558,13.47,30.028,30.028,30.028h70.535
	c16.558,0,30.028-13.47,30.028-30.028c0-5.361-1.412-10.398-3.883-14.759h13.698c16.558,0,30.028-13.47,30.028-30.028
	S476.138,90.06,459.58,90.06c-4.217,0-7.634,3.418-7.634,7.634c0,4.216,3.417,7.634,7.634,7.634c8.138,0,14.759,6.621,14.759,14.759
	s-6.621,14.759-14.759,14.759h-39.842c-4.217,0-7.634,3.418-7.634,7.634c0,4.216,3.417,7.634,7.634,7.634
	c8.138,0,14.759,6.621,14.759,14.759s-6.621,14.759-14.759,14.759h-70.535c-8.138,0-14.759-6.621-14.759-14.759
	s6.621-14.759,14.759-14.759c4.217,0,7.634-3.418,7.634-7.634c0-4.216-3.417-7.634-7.634-7.634h-70.278
	c-8.138,0-14.758-6.621-14.758-14.759s6.62-14.759,14.758-14.759h154.868c4.217,0,7.634-3.418,7.634-7.634
	c0-4.216-3.417-7.634-7.634-7.634H278.924c-16.557,0-30.028,13.47-30.028,30.028S262.367,150.115,278.924,150.115z"/>
<path d="M179.93,150.115h26.765c16.558,0,30.028-13.47,30.028-30.028s-13.47-30.028-30.028-30.028H179.93
	c-16.557,0-30.028,13.47-30.028,30.028S163.372,150.115,179.93,150.115z M179.93,105.328h26.765c8.138,0,14.759,6.621,14.759,14.759
	s-6.621,14.759-14.759,14.759H179.93c-8.138,0-14.759-6.621-14.759-14.759S171.791,105.328,179.93,105.328z"/>
<path d="M481.972,187.777c-16.558,0-30.028,13.471-30.028,30.028s13.47,30.028,30.028,30.028c16.558,0,30.028-13.471,30.028-30.028
	S498.53,187.777,481.972,187.777z M481.972,232.564c-8.138,0-14.759-6.621-14.759-14.759c0-8.138,6.621-14.759,14.759-14.759
	c8.138,0,14.759,6.621,14.759,14.759C496.732,225.943,490.111,232.564,481.972,232.564z"/>
</svg>